<svg xmlns="http://www.w3.org/2000/svg" xmlns:xlink="http://www.w3.org/1999/xlink" viewBox="0 0 50 50" version="1.1">
<g id="surface1">
<path style=" " d="M 2.8125 3 C 2.359375 3.082031 2.023438 3.460938 1.992188 3.917969 C 1.960938 4.378906 2.25 4.796875 2.6875 4.9375 L 8 6.71875 L 8 14 L 10 14 L 10 7.375 L 14.6875 8.9375 C 15.039063 9.117188 15.460938 9.074219 15.769531 8.828125 C 16.078125 8.582031 16.210938 8.179688 16.113281 7.796875 C 16.015625 7.417969 15.703125 7.128906 15.3125 7.0625 L 10.96875 5.59375 C 10.78125 4.683594 9.960938 4 9 4 C 8.492188 4 8.042969 4.214844 7.6875 4.53125 L 3.3125 3.0625 C 3.152344 3 2.980469 2.976563 2.8125 3 Z M 42 4 C 40.898438 4 40 4.898438 40 6 L 44 6 C 44 4.898438 43.101563 4 42 4 Z M 35.71875 7 C 35.167969 7.078125 34.78125 7.589844 34.859375 8.140625 C 34.9375 8.691406 35.449219 9.078125 36 9 L 48 9 C 48.359375 9.003906 48.695313 8.816406 48.878906 8.503906 C 49.058594 8.191406 49.058594 7.808594 48.878906 7.496094 C 48.695313 7.183594 48.359375 6.996094 48 7 L 36 7 C 35.96875 7 35.9375 7 35.90625 7 C 35.875 7 35.84375 7 35.8125 7 C 35.78125 7 35.75 7 35.71875 7 Z M 35.71875 10 C 35.167969 10.078125 34.78125 10.589844 34.859375 11.140625 C 34.9375 11.691406 35.449219 12.078125 36 12 L 41 12 L 41 14 L 43 14 L 43 12 L 48 12 C 48.359375 12.003906 48.695313 11.816406 48.878906 11.503906 C 49.058594 11.191406 49.058594 10.808594 48.878906 10.496094 C 48.695313 10.183594 48.359375 9.996094 48 10 L 36 10 C 35.96875 10 35.9375 10 35.90625 10 C 35.875 10 35.84375 10 35.8125 10 C 35.78125 10 35.75 10 35.71875 10 Z M 2 15 C 1.398438 15 1 15.398438 1 16 L 1 26 C 1 26.601563 1.398438 27 2 27 L 8 27 L 8 46 C 8 46.601563 8.398438 47 9 47 C 9.601563 47 10 46.601563 10 46 L 10 27 L 11.3125 27 C 12.511719 24.199219 14.5 21.914063 17 20.3125 L 17 16 C 17 15.398438 16.601563 15 16 15 Z M 34 15 C 33.398438 15 33 15.398438 33 16 L 33 20.3125 C 35.5 21.914063 37.488281 24.199219 38.6875 27 L 40 27 L 40 46 C 39.996094 46.359375 40.183594 46.695313 40.496094 46.878906 C 40.808594 47.058594 41.191406 47.058594 41.503906 46.878906 C 41.816406 46.695313 42.003906 46.359375 42 46 L 42 27 L 48 27 C 48.601563 27 49 26.601563 49 26 L 49 16 C 49 15.398438 48.601563 15 48 15 Z M 5 17 L 7 17 L 7 23 L 5 23 Z M 11 17 L 13 17 L 13 23 L 11 23 Z M 37 17 L 39 17 L 39 23 L 37 23 Z M 43 17 L 45 17 L 45 23 L 43 23 Z M 25 20 C 17.800781 20 12 25.800781 12 33 C 12 40.199219 17.800781 46 25 46 C 32.199219 46 38 40.199219 38 33 C 38 25.800781 32.199219 20 25 20 Z M 30 35 C 31.101563 35 32 35.898438 32 37 C 32 38.101563 31.101563 39 30 39 C 28.898438 39 28 38.101563 28 37 C 28 35.898438 28.898438 35 30 35 Z M 14.6875 43.90625 L 13.3125 45.3125 C 12.914063 45.710938 12.914063 46.289063 13.3125 46.6875 C 13.511719 46.886719 13.800781 47 14 47 C 14.199219 47 14.488281 46.886719 14.6875 46.6875 L 16.1875 45.1875 C 15.6875 44.789063 15.1875 44.304688 14.6875 43.90625 Z M 35.3125 43.90625 C 34.8125 44.40625 34.3125 44.789063 33.8125 45.1875 L 35.3125 46.6875 C 35.511719 46.886719 35.800781 47 36 47 C 36.199219 47 36.488281 46.886719 36.6875 46.6875 C 37.085938 46.289063 37.085938 45.710938 36.6875 45.3125 Z "></path>
</g>
</svg>
