<svg xmlns="http://www.w3.org/2000/svg" viewBox="0 0 50 50">
    <path d="M 42.292969 4.0097656 C 41.788281 4.0222656 41.179688 4.0571094 40.429688 4.0996094 C 37.969688 4.2496094 33.39 4.5097656 25 4.5097656 C 16.66 4.5097656 12.239609 4.259375 9.5996094 4.109375 C 6.5696094 3.939375 5.839375 3.9008594 4.859375 4.8808594 C 3.889375 5.8508594 3.929375 6.5296875 4.109375 9.4296875 C 4.259375 11.879687 4.5390625 16.450469 4.5390625 24.980469 C 4.5390625 33.320469 4.290625 37.740625 4.140625 40.390625 C 3.960625 43.440625 3.9196875 44.170156 4.9296875 45.160156 C 5.5996875 45.800156 6.1000781 45.990234 7.3300781 45.990234 C 7.8900781 45.990234 8.6103125 45.950391 9.5703125 45.900391 C 12.020312 45.760391 16.59 45.509766 25 45.509766 C 33.21 45.509766 37.629297 45.740859 40.279297 45.880859 C 43.479297 46.040859 44.150625 46.079844 45.140625 45.089844 C 46.120625 44.109844 46.070391 43.400156 45.900391 40.410156 C 45.750391 37.950156 45.480469 33.370469 45.480469 24.980469 C 45.480469 16.640469 45.740625 12.219844 45.890625 9.5898438 C 46.070625 6.5598438 46.110859 5.839375 45.130859 4.859375 C 44.395859 4.131875 43.807031 3.9722656 42.292969 4.0097656 z M 10 8 C 11.11 8 12 8.9 12 10 C 12 11.1 11.11 12 10 12 C 8.9 12 8 11.1 8 10 C 8 8.9 8.9 8 10 8 z M 40 8 C 41.11 8 42 8.9 42 10 C 42 11.1 41.11 12 40 12 C 38.9 12 38 11.1 38 10 C 38 8.9 38.9 8 40 8 z M 25 10 C 33.3 10 40.019531 16.72 40.019531 25 C 40.019531 33.28 33.3 40 25 40 C 16.7 40 9.9804687 33.28 9.9804688 25 C 9.9804688 16.72 16.7 10 25 10 z M 25 14 C 18.92 14 14 18.92 14 25 C 14 31.08 18.92 36 25 36 C 31.08 36 36 31.08 36 25 C 36 18.92 31.08 14 25 14 z M 25 22 C 26.66 22 28 23.34 28 25 C 28 26.66 26.66 28 25 28 C 23.34 28 22 26.66 22 25 C 22 23.34 23.34 22 25 22 z M 10 38 C 11.11 38 12 38.9 12 40 C 12 41.1 11.11 42 10 42 C 8.9 42 8 41.1 8 40 C 8 38.9 8.9 38 10 38 z M 40 38 C 41.11 38 42 38.9 42 40 C 42 41.1 41.11 42 40 42 C 38.9 42 38 41.1 38 40 C 38 38.9 38.9 38 40 38 z"></path>
</svg>
