<svg xmlns="http://www.w3.org/2000/svg" xmlns:xlink="http://www.w3.org/1999/xlink" viewBox="0 0 50 50" version="1.1">
<g id="surface1">
<path style=" " d="M 48.5625 9.03125 C 47.691406 9.027344 46.984375 9.90625 46.375 10.8125 L 46.21875 11.03125 C 42.835938 16.171875 39.214844 19 36 19 L 30 19 L 30 17 C 30.359375 17.003906 30.695313 16.816406 30.878906 16.503906 C 31.058594 16.191406 31.058594 15.808594 30.878906 15.496094 C 30.695313 15.183594 30.359375 14.996094 30 15 L 28 15 C 27.96875 15 27.9375 15 27.90625 15 C 27.875 15 27.84375 15 27.8125 15 C 27.261719 15.050781 26.855469 15.542969 26.90625 16.09375 C 26.957031 16.644531 27.449219 17.050781 28 17 L 28 19 L 25 19 L 25 17 C 25.359375 17.003906 25.695313 16.816406 25.878906 16.503906 C 26.058594 16.191406 26.058594 15.808594 25.878906 15.496094 C 25.695313 15.183594 25.359375 14.996094 25 15 L 23 15 C 22.96875 15 22.9375 15 22.90625 15 C 22.875 15 22.84375 15 22.8125 15 C 22.261719 15.050781 21.855469 15.542969 21.90625 16.09375 C 21.957031 16.644531 22.449219 17.050781 23 17 L 23 19 L 20 19 L 20 17 C 20.359375 17.003906 20.695313 16.816406 20.878906 16.503906 C 21.058594 16.191406 21.058594 15.808594 20.878906 15.496094 C 20.695313 15.183594 20.359375 14.996094 20 15 L 18 15 C 17.96875 15 17.9375 15 17.90625 15 C 17.875 15 17.84375 15 17.8125 15 C 17.261719 15.050781 16.855469 15.542969 16.90625 16.09375 C 16.957031 16.644531 17.449219 17.050781 18 17 L 18 19 C 13.144531 19 8.21875 22.378906 8.21875 28.84375 C 8.21875 37.132813 14.628906 39 16.875 39 L 28.6875 39 C 36.296875 39 39 34.152344 39 30 L 39 28.5 C 38.367188 28.199219 37.699219 28 37 28 L 32.96875 28 C 32.902344 29.679688 32.671875 31.078125 31.84375 31.90625 C 31.414063 32.335938 30.789063 32.605469 30 32.78125 L 30 26 L 28 26 L 28 33 L 25 33 L 25 26 L 23 26 L 23 33 L 20 33 L 20 26 L 18 26 L 18 33 C 15.269531 33 14 31.882813 14 29.5 C 14 28.632813 14 26 18 26 L 18 23.46875 C 18 22.917969 18.449219 22.46875 19 22.46875 C 19.550781 22.46875 20 22.917969 20 23.46875 L 20 26 L 23 26 L 23 23.46875 C 23 22.917969 23.449219 22.46875 24 22.46875 C 24.550781 22.46875 25 22.917969 25 23.46875 L 25 26 L 28 26 L 28 23.46875 C 28 22.917969 28.445313 22.46875 29 22.46875 C 29.554688 22.46875 30 22.917969 30 23.46875 L 30 26 L 37 26 C 37.699219 26 38.367188 26.132813 39 26.34375 L 39 26.3125 C 42.460938 27.457031 44.871094 31.292969 46 33.09375 C 46.136719 33.3125 46.269531 33.527344 46.375 33.6875 C 47.539063 35.472656 48.207031 36.210938 49.125 35.9375 C 50.019531 35.667969 50.003906 34.699219 50 34.125 L 50 11 C 50 9.675781 49.445313 9.238281 48.96875 9.09375 C 48.839844 9.054688 48.6875 9.03125 48.5625 9.03125 Z M 2 17 C 0.898438 17 0 17.894531 0 19 L 0 23.96875 C 0 25.070313 0.898438 25.96875 2 25.96875 C 3.105469 25.96875 4 25.074219 4 23.96875 L 4 19 C 4 17.898438 3.105469 17 2 17 Z M 6 19 L 6 23.96875 C 6 23.976563 6 23.992188 6 24 L 6.53125 24 C 7.65625 21.753906 9.292969 20.117188 11.21875 19 Z "></path>
</g>
</svg>
