<svg xmlns="http://www.w3.org/2000/svg" xmlns:xlink="http://www.w3.org/1999/xlink" viewBox="0 0 50 50" version="1.1">
<g id="surface1">
<path style=" " d="M 16.03125 0 C 14.734375 -0.03125 13.496094 0.550781 12.5 1.65625 C 11.367188 2.914063 10.566406 4.632813 9.78125 6.3125 C 8.910156 8.179688 8.078125 9.949219 7 10.65625 L 7 15.9375 C 11.277344 15.425781 13.171875 11.679688 14.21875 9.59375 C 14.265625 9.5 14.292969 9.378906 14.34375 9.28125 C 15.902344 13.378906 25.277344 38.035156 25.28125 38.03125 C 25.320313 38.171875 28.605469 49.84375 38.03125 49.84375 C 38.480469 49.84375 38.925781 49.808594 39.40625 49.75 C 42.433594 49.402344 43.527344 48.800781 45.6875 46.90625 C 47.992188 44.890625 49.003906 43.535156 49 39 C 49 37.273438 48.144531 35.058594 47.21875 32.71875 C 46.375 30.578125 45.480469 28.367188 45.59375 27.15625 C 45.882813 24.195313 46.527344 24.03125 47.09375 23.875 C 49.28125 23.277344 49.753906 22.28125 49.75 21.5625 C 49.746094 21.113281 49.523438 20.027344 47.5 19.5 C 45.492188 18.980469 35.777344 15.957031 34.15625 15.40625 C 32.792969 14.953125 31.640625 15.183594 31.15625 16 C 30.367188 17.328125 31.945313 18.824219 32.46875 19.3125 C 33.699219 20.464844 33.710938 21.78125 33.71875 23.59375 C 33.722656 24.757813 33.742188 26.0625 34.125 27.46875 C 34.679688 29.460938 35.648438 32.285156 38.34375 36.46875 C 38.90625 37.347656 39.164063 38.15625 39.03125 38.6875 C 38.988281 38.859375 38.886719 39.128906 38.5 39.34375 C 38.335938 39.4375 38.191406 39.453125 38.03125 39.40625 C 37.558594 39.269531 36.964844 38.601563 36.5 37.75 C 36.441406 37.625 34.089844 32.449219 31.25 26.1875 C 30.925781 26.730469 30.472656 27.152344 30.46875 27.15625 C 30.128906 27.472656 29.734375 27.75 29.34375 27.9375 C 28.015625 28.578125 27.109375 27.992188 26.625 26.96875 C 26.132813 25.949219 26.269531 24.855469 27.59375 24.21875 C 28.007813 24.019531 28.46875 23.902344 28.9375 23.84375 C 28.9375 23.84375 29.570313 23.785156 30.21875 23.90625 C 29.65625 22.664063 29.070313 21.417969 28.5 20.15625 C 28.183594 20.703125 27.746094 21.097656 27.71875 21.125 C 27.378906 21.445313 26.984375 21.75 26.59375 21.9375 C 25.265625 22.578125 24.359375 21.988281 23.875 20.96875 C 23.382813 19.949219 23.488281 18.855469 24.8125 18.21875 C 25.226563 18.019531 25.6875 17.902344 26.15625 17.84375 C 26.15625 17.84375 26.835938 17.773438 27.5 17.90625 C 26.914063 16.609375 26.332031 15.34375 25.78125 14.125 C 25.453125 14.695313 25.003906 15.152344 25 15.15625 L 24.96875 15.15625 C 24.628906 15.476563 24.265625 15.75 23.875 15.9375 C 22.546875 16.578125 21.609375 15.988281 21.125 14.96875 C 20.632813 13.949219 20.769531 12.855469 22.09375 12.21875 C 22.507813 12.019531 22.96875 11.902344 23.4375 11.84375 C 23.4375 11.84375 24.109375 11.800781 24.78125 11.9375 C 23.066406 8.152344 21.757813 5.175781 21.34375 4.25 C 20.304688 1.921875 18.519531 0.367188 16.59375 0.0625 C 16.40625 0.0351563 16.214844 0.00390625 16.03125 0 Z M 2.34375 10.25 C 2.09375 10.28125 1.859375 10.410156 1.6875 10.625 L 0.28125 12.34375 C 0.0585938 12.621094 -0.00390625 13.011719 0.125 13.34375 C 0.222656 13.597656 1.167969 15.65625 5 15.96875 L 5 11 C 4.351563 10.957031 3.539063 10.839844 3.0625 10.46875 C 2.847656 10.300781 2.59375 10.21875 2.34375 10.25 Z M 39.84375 26.125 C 40.417969 26.054688 41.023438 26.25 41.4375 26.71875 C 42.09375 27.46875 42.035156 28.625 41.28125 29.28125 C 40.53125 29.9375 39.375 29.84375 38.71875 29.09375 C 38.066406 28.34375 38.152344 27.222656 38.90625 26.5625 C 39.1875 26.316406 39.5 26.167969 39.84375 26.125 Z M 42.375 31.9375 C 42.953125 31.867188 43.554688 32.0625 43.96875 32.53125 C 44.625 33.285156 44.53125 34.4375 43.78125 35.09375 C 43.023438 35.75 41.90625 35.683594 41.25 34.9375 C 40.597656 34.1875 40.652344 33.03125 41.40625 32.375 C 41.6875 32.128906 42.027344 31.980469 42.375 31.9375 Z "></path>
</g>
</svg>
