<svg xmlns="http://www.w3.org/2000/svg" xmlns:xlink="http://www.w3.org/1999/xlink" viewBox="0 0 50 50" version="1.1">
<g id="surface1">
<path style=" " d="M 10.21875 0.1875 C 9.828125 0.222656 9.546875 0.414063 9.375 0.5625 C 8.675781 1.160156 8.582031 2.324219 9.15625 3.71875 C 11.871094 10.28125 12.695313 15.550781 11.34375 17.78125 C 10.96875 18.398438 10.628906 18.914063 10.34375 19.375 C 9.835938 20.1875 9.484375 20.777344 9.21875 21.28125 C 6.28125 26.84375 5.015625 31.242188 5 35.96875 C 5 35.976563 5 35.992188 5 36 C 5 36.011719 5 36.019531 5 36.03125 C 5 36.046875 5 36.046875 5 36.0625 C 5 36.070313 5 36.085938 5 36.09375 C 5.058594 43.765625 11.316406 50 19 50 C 26.71875 50 33 43.71875 33 36 C 33 28.921875 27.703125 23.082031 20.875 22.15625 C 20.398438 22.4375 19.984375 22.726563 19.65625 23.0625 C 18.304688 24.441406 16.621094 26.5625 15.28125 28.90625 C 16.390625 28.320313 17.660156 28 19 28 C 23.410156 28 27 31.589844 27 36 C 27 40.410156 23.410156 44 19 44 C 14.632813 44 11.070313 40.476563 11 36.125 C 10.980469 36.078125 10.96875 36.039063 10.96875 36 C 10.96875 30.527344 15.738281 24.21875 18.25 21.65625 C 18.441406 21.460938 18.652344 21.300781 18.875 21.125 C 18.945313 21.070313 18.988281 20.992188 19.0625 20.9375 C 19.226563 20.816406 19.417969 20.707031 19.59375 20.59375 C 19.679688 20.539063 19.753906 20.492188 19.84375 20.4375 C 20.035156 20.324219 20.234375 20.199219 20.4375 20.09375 C 20.511719 20.054688 20.578125 20.039063 20.65625 20 C 20.921875 19.871094 21.191406 19.742188 21.46875 19.625 C 21.601563 19.566406 21.738281 19.492188 21.875 19.4375 C 22.035156 19.375 22.210938 19.339844 22.375 19.28125 C 22.535156 19.222656 22.683594 19.148438 22.84375 19.09375 C 22.984375 19.046875 23.140625 19.011719 23.28125 18.96875 C 23.457031 18.914063 23.636719 18.863281 23.8125 18.8125 C 27.300781 17.796875 30.960938 17.507813 31.75 17.5 C 32.898438 17.523438 34.195313 16.996094 34.5 15.90625 C 34.605469 15.535156 34.714844 14.574219 33.40625 13.78125 C 33.40625 13.78125 13.128906 1.507813 11.71875 0.65625 C 11.089844 0.273438 10.609375 0.152344 10.21875 0.1875 Z M 15.53125 31.0625 L 13.84375 31.9375 C 13.359375 33.199219 13.023438 34.472656 12.96875 35.65625 L 13 35.6875 L 13 36.09375 C 13.015625 37.148438 13.3125 38.144531 13.8125 39 C 13.925781 38.691406 14 38.351563 14 38 L 14 34 C 14 33.449219 14.449219 33 15 33 C 15.550781 33 16 33.449219 16 34 L 16 38 C 16 39.652344 17.347656 41 19 41 C 20.652344 41 22 39.652344 22 38 L 22 34 C 22 33.449219 22.449219 33 23 33 C 23.550781 33 24 33.449219 24 34 L 24 38 C 24 38.355469 24.070313 38.683594 24.1875 39 C 24.703125 38.113281 25 37.097656 25 36 C 25 33.953125 23.976563 32.148438 22.40625 31.0625 C 21.039063 31.339844 20 32.550781 20 34 L 20 38 C 20 38.550781 19.550781 39 19 39 C 18.449219 39 18 38.550781 18 38 L 18 34 C 18 32.527344 16.933594 31.3125 15.53125 31.0625 Z M 40 41 C 38.898438 41 38 41.894531 38 43 L 38 48 C 38 49.105469 38.898438 50 40 50 C 41.105469 50 42 49.105469 42 48 L 42 43 C 42 41.894531 41.105469 41 40 41 Z M 33.375 43 C 32.4375 44.910156 31.144531 46.605469 29.5625 48 L 36 48 L 36 43 Z "></path>
</g>
</svg>
