<svg xmlns="http://www.w3.org/2000/svg" xmlns:xlink="http://www.w3.org/1999/xlink" viewBox="0 0 50 50" version="1.1">
<g id="surface1">
<path style=" " d="M 44.46875 0.09375 C 43.96875 0.09375 43.523438 0.253906 43.1875 0.59375 L 12.59375 31.21875 L 18.78125 37.40625 L 25 31.21875 C 23.917969 30.535156 22.902344 29.777344 22.5625 29.4375 C 21.777344 28.652344 21.777344 27.347656 22.5625 26.5625 C 23.347656 25.777344 24.652344 25.777344 25.4375 26.5625 C 25.777344 26.902344 26.503906 27.917969 27.1875 29 L 31 25.21875 C 29.917969 24.535156 28.902344 23.777344 28.5625 23.4375 C 27.777344 22.652344 27.777344 21.347656 28.5625 20.5625 C 29.347656 19.777344 30.652344 19.777344 31.4375 20.5625 C 31.777344 20.902344 32.503906 21.917969 33.1875 23 L 37 19.21875 C 35.917969 18.535156 34.902344 17.777344 34.5625 17.4375 C 33.777344 16.652344 33.777344 15.347656 34.5625 14.5625 C 35.347656 13.777344 36.652344 13.777344 37.4375 14.5625 C 37.777344 14.902344 38.503906 15.917969 39.1875 17 L 43 13.21875 C 41.917969 12.535156 40.902344 11.777344 40.5625 11.4375 C 39.777344 10.652344 39.777344 9.347656 40.5625 8.5625 C 41.347656 7.777344 42.652344 7.777344 43.4375 8.5625 C 43.777344 8.902344 44.503906 9.917969 45.1875 11 L 47.5 8.6875 L 49.40625 6.8125 C 49.777344 6.441406 50.289063 5.589844 49.59375 4.21875 C 49.273438 3.585938 48.714844 2.902344 47.90625 2.09375 C 46.582031 0.769531 45.429688 0.09375 44.46875 0.09375 Z M 45.1875 11 L 43 13.21875 C 43.511719 13.542969 44.011719 13.824219 44.5 14.0625 L 40.0625 18.5 C 39.824219 18.011719 39.511719 17.511719 39.1875 17 L 37 19.21875 C 37.511719 19.542969 38.011719 19.824219 38.5 20.0625 L 34.0625 24.5 C 33.824219 24.011719 33.511719 23.511719 33.1875 23 L 31 25.21875 C 31.511719 25.542969 32.011719 25.824219 32.5 26.0625 L 28.0625 30.5 C 27.824219 30.011719 27.511719 29.511719 27.1875 29 L 25 31.21875 C 25.511719 31.542969 26.011719 31.824219 26.5 32.0625 L 25.28125 33.28125 C 24.890625 33.671875 24.890625 34.328125 25.28125 34.71875 C 25.476563 34.914063 25.742188 35 26 35 C 26.257813 35 26.523438 34.914063 26.71875 34.71875 L 48.71875 12.71875 C 49.109375 12.328125 49.109375 11.671875 48.71875 11.28125 C 48.328125 10.890625 47.671875 10.890625 47.28125 11.28125 L 46.0625 12.5 C 45.824219 12.011719 45.511719 11.511719 45.1875 11 Z M 11.15625 32.625 L 0.96875 42.84375 C -1.1875 45 0.898438 47.085938 1.90625 48.09375 C 2.96875 49.15625 3.734375 49.707031 4.5 49.90625 C 4.71875 49.964844 4.945313 50 5.15625 50 C 5.859375 50 6.53125 49.691406 7.15625 49.0625 L 17.375 38.84375 Z "></path>
</g>
</svg>
