<svg xmlns="http://www.w3.org/2000/svg" xmlns:xlink="http://www.w3.org/1999/xlink" viewBox="0 0 50 50" version="1.1">
<g id="surface1">
<path style=" " d="M 49.480469 11.730469 L 47.855469 8.6875 C 47.355469 7.851563 46.625 7.285156 45.839844 7.128906 L 35.449219 3.863281 C 34.445313 3.488281 33.167969 3.738281 32.253906 4.472656 L 43.054688 7.671875 C 43.585938 7.828125 43.886719 8.382813 43.730469 8.914063 C 43.601563 9.347656 43.203125 9.628906 42.773438 9.628906 C 42.679688 9.628906 42.582031 9.617188 42.488281 9.589844 L 29.714844 5.804688 L 28.125 5.609375 C 28.0625 5.601563 28.003906 5.597656 27.941406 5.601563 C 26.066406 5.710938 24.273438 6.449219 22.726563 7.761719 L 5.953125 23.035156 C 4.484375 24.28125 3.542969 26.074219 3.308594 28.082031 C 3.296875 28.160156 3.296875 28.238281 3.308594 28.316406 L 3.382813 28.980469 L 14.695313 35.429688 C 15.175781 35.703125 15.34375 36.316406 15.070313 36.792969 C 14.886719 37.117188 14.546875 37.300781 14.199219 37.300781 C 14.03125 37.300781 13.863281 37.257813 13.707031 37.167969 L 2.949219 31.035156 L 1.140625 32.847656 C 0.00390625 33.84375 -0.308594 35.660156 0.417969 36.972656 L 2.042969 40.015625 C 2.476563 40.738281 3.058594 41.261719 3.730469 41.53125 L 15.183594 46.050781 C 15.558594 46.175781 15.953125 46.238281 16.347656 46.238281 C 17.253906 46.238281 18.113281 45.898438 18.667969 45.34375 L 20.425781 43.753906 L 21.464844 43.894531 C 21.566406 43.90625 21.664063 43.90625 21.765625 43.886719 C 22.363281 43.785156 23.246094 43.566406 23.992188 42.820313 L 46.003906 21.507813 C 46.648438 20.863281 47.140625 19.785156 47.277344 19.097656 C 47.363281 18.679688 47.320313 18.167969 47.265625 17.78125 L 48.90625 15.808594 C 49.980469 14.730469 50.207031 13.179688 49.480469 11.730469 Z M 19 39.800781 L 17.699219 37.398438 L 19.699219 35.5 L 21 37.800781 Z M 22 36.800781 L 20.699219 34.5 L 22.800781 32.601563 L 24 34.898438 Z M 25 33.898438 L 23.800781 31.601563 L 25.800781 29.699219 L 27 32 Z M 28 31.101563 L 26.800781 28.800781 L 28.699219 26.902344 L 30 29.199219 Z M 31 28.199219 L 29.699219 25.898438 L 31.699219 24 L 32.898438 26.300781 Z M 33.898438 25.398438 L 32.699219 23.101563 L 34.597656 21.199219 L 35.898438 23.5 Z M 36.898438 22.601563 L 35.601563 20.300781 L 37.601563 18.398438 L 38.800781 20.699219 Z M 39.800781 19.800781 L 38.5 17.5 L 40.5 15.699219 L 41.699219 17.898438 Z M 42.601563 17 L 41.398438 14.800781 L 43.300781 12.898438 L 44.5 15.199219 Z "></path>
</g>
</svg>
