<svg xmlns="http://www.w3.org/2000/svg" xmlns:xlink="http://www.w3.org/1999/xlink" viewBox="0 0 50 50" version="1.1">
<g id="surface1">
<path style=" " d="M 8 0 C 7.445313 0 7 0.449219 7 1 L 7 4 C 7 4.550781 7.445313 5 8 5 L 8 41 L 15 41 C 15.308594 41 15.648438 40.964844 16 40.90625 L 16 5 C 16.550781 5 17 4.550781 17 4 L 17 1 C 17 0.449219 16.550781 0 16 0 Z M 20 3 C 19.652344 3 19.324219 3.03125 19 3.0625 L 19 4 C 19 4.886719 18.613281 5.667969 18 6.21875 L 18 10.6875 C 18.636719 10.296875 19.328125 10 20 10 L 20 39.1875 L 22 38.1875 L 22 10.53125 C 23.109375 11.117188 24.050781 12.132813 25 13.25 L 25 36.40625 L 27 35 L 27 15.5 C 27.882813 16.410156 28.84375 17.191406 30 17.625 L 30 32.6875 L 32 30.90625 L 32 18 C 33.164063 18 34.09375 17.769531 35 17.53125 L 35 28 L 37 25.8125 L 37 17.09375 C 37.324219 17.042969 37.652344 17 38 17 C 38.902344 17 41 17.292969 41 20 C 41 26.050781 24.535156 41.949219 15.8125 42.9375 C 15.53125 42.96875 15.265625 43 15 43 L 7 43 C 5.839844 43 5 43.839844 5 45 L 5 48 C 5 49.160156 5.839844 50 7 50 L 21.3125 50 C 27.382813 50 47 30.554688 47 20.59375 C 47 15.121094 43.5625 11 39 11 C 37.066406 11 35.683594 11.242188 34.5625 11.4375 C 33.863281 11.558594 33.289063 11.65625 32.8125 11.65625 C 31.902344 11.65625 31.03125 11.390625 28.8125 8.21875 C 26.375 4.699219 23.5 3 20 3 Z "></path>
</g>
</svg>
