<svg xmlns="http://www.w3.org/2000/svg" xmlns:xlink="http://www.w3.org/1999/xlink" viewBox="0 0 50 50" version="1.1">
<g id="surface1">
<path style=" " d="M 40.988281 0.992188 C 40.582031 0.992188 40.21875 1.238281 40.0625 1.613281 C 39.910156 1.992188 40 2.421875 40.292969 2.707031 L 41.761719 4.171875 L 40.824219 5.410156 L 39.707031 4.292969 C 39.519531 4.097656 39.261719 3.992188 38.988281 3.992188 C 38.582031 3.992188 38.21875 4.238281 38.0625 4.613281 C 37.910156 4.992188 38 5.421875 38.292969 5.707031 L 39.605469 7.019531 L 38.425781 8.570313 L 41.425781 11.574219 L 48.558594 6.171875 C 49.101563 5.746094 49.152344 4.9375 48.660156 4.449219 L 45.550781 1.335938 C 45.0625 0.847656 44.253906 0.898438 43.828125 1.445313 L 42.980469 2.566406 L 41.707031 1.292969 C 41.519531 1.097656 41.261719 0.992188 40.988281 0.992188 Z M 37 10 L 27 19.585938 L 30.414063 23 L 40 13 Z M 24.980469 20.394531 L 1.796875 25.171875 C 1.441406 25.242188 1.148438 25.507813 1.042969 25.859375 C 0.9375 26.214844 1.03125 26.59375 1.292969 26.855469 L 23.140625 48.703125 C 23.332031 48.894531 23.585938 49 23.847656 49 C 23.945313 49 24.042969 48.984375 24.136719 48.957031 C 24.488281 48.851563 24.753906 48.5625 24.828125 48.203125 L 29.605469 25.019531 Z M 21.5 27 C 22.328125 27 23 27.671875 23 28.5 C 23 29.328125 22.328125 30 21.5 30 C 20.671875 30 20 29.328125 20 28.5 C 20 27.671875 20.671875 27 21.5 27 Z M 15 30 C 15.253906 30 15.511719 30.097656 15.707031 30.292969 L 19.707031 34.292969 C 20.097656 34.683594 20.097656 35.316406 19.707031 35.707031 C 19.511719 35.902344 19.257813 36 19 36 C 18.742188 36 18.488281 35.902344 18.292969 35.707031 L 14.292969 31.707031 C 13.902344 31.316406 13.902344 30.683594 14.292969 30.292969 C 14.488281 30.097656 14.746094 30 15 30 Z "></path>
</g>
</svg>
