<svg xmlns="http://www.w3.org/2000/svg" viewBox="0 0 50 50">
    <path d="M 4 5 C 3.45 5 3 5.45 3 6 L 3 44 C 3 44.55 3.45 45 4 45 L 46 45 C 46.55 45 47 44.55 47 44 L 47 6 C 47 5.45 46.55 5 46 5 L 4 5 z M 9 11 L 24 11 C 24.6 11 25 11.4 25 12 L 25 20 C 25 20.6 24.6 21 24 21 L 9 21 C 8.4 21 8 20.6 8 20 L 8 12 C 8 11.4 8.4 11 9 11 z M 20 13 L 20 19 L 22 19 L 22 13 L 20 13 z M 32 13 C 33.66 13 35 14.34 35 16 C 35 17.66 33.66 19 32 19 C 30.34 19 29 17.66 29 16 C 29 14.34 30.34 13 32 13 z M 40 13 C 41.66 13 43 14.34 43 16 C 43 17.66 41.66 19 40 19 C 38.34 19 37 17.66 37 16 C 37 14.34 38.34 13 40 13 z M 14 14 L 14 19 L 16 19 L 16 14 L 14 14 z M 17 15 L 17 19 L 19 19 L 19 15 L 17 15 z M 11 17 L 11 19 L 13 19 L 13 17 L 11 17 z M 5 27 L 9.0195312 27 L 9.3007812 38.300781 C 9.4007812 38.700781 9.6996094 39 10.099609 39 L 11.900391 39 C 12.300391 39 12.599609 38.700781 12.599609 38.300781 L 12.970703 27 L 15.019531 27 L 15.300781 38.300781 C 15.400781 38.700781 15.699609 39 16.099609 39 L 17.900391 39 C 18.300391 39 18.599609 38.700781 18.599609 38.300781 L 18.970703 27 L 21.019531 27 L 21.300781 38.300781 C 21.400781 38.700781 21.699609 39 22.099609 39 L 23.900391 39 C 24.300391 39 24.599609 38.700781 24.599609 38.300781 L 24.970703 27 L 31.019531 27 L 31.300781 38.300781 C 31.400781 38.700781 31.699609 39 32.099609 39 L 33.900391 39 C 34.300391 39 34.599609 38.700781 34.599609 38.300781 L 34.970703 27 L 37.019531 27 L 37.300781 38.300781 C 37.400781 38.700781 37.699609 39 38.099609 39 L 39.900391 39 C 40.300391 39 40.599609 38.700781 40.599609 38.300781 L 40.970703 27 L 45 27 L 45 43 L 5 43 L 5 27 z"></path>
</svg>
