<svg xmlns="http://www.w3.org/2000/svg" viewBox="0 0 50 50">
    <path d="M 29 2 C 18.523 2 10 10.523 10 21 C 10 31.477 18.523 40 29 40 C 39.477 40 48 31.477 48 21 C 48 10.523 39.477 2 29 2 z M 8.8867188 14.982422 C 7.0687188 17.895422 6 21.321 6 25 C 6 35.477 14.523 44 25 44 C 28.679 44 32.104578 42.931281 35.017578 41.113281 C 33.109578 41.683281 31.093 42 29 42 C 17.402 42 8 32.598 8 21 C 8 18.907 8.3167188 16.890422 8.8867188 14.982422 z M 29 15 C 32.314 15 35 17.686 35 21 C 35 24.314 32.314 27 29 27 C 25.686 27 23 24.314 23 21 C 23 17.686 25.686 15 29 15 z M 4.8867188 18.982422 C 3.0687187 21.895422 2 25.321 2 29 C 2 39.477 10.523 48 21 48 C 24.679 48 28.104578 46.931281 31.017578 45.113281 C 29.109578 45.683281 27.093 46 25 46 C 13.402 46 4 36.598 4 25 C 4 22.907 4.3167187 20.890422 4.8867188 18.982422 z M 29 19 A 2 2 0 0 0 27 21 A 2 2 0 0 0 29 23 A 2 2 0 0 0 31 21 A 2 2 0 0 0 29 19 z"></path>
</svg>
