<svg xmlns="http://www.w3.org/2000/svg" xmlns:xlink="http://www.w3.org/1999/xlink" viewBox="0 0 50 50" version="1.1">
<g id="surface1">
<path style=" " d="M 9 2 C 4.039063 2 0 6.039063 0 11 L 0 45 C 0 46.652344 1.347656 48 3 48 L 47 48 C 48.652344 48 50 46.652344 50 45 L 50 27 C 50 22.039063 45.964844 18 41 18 L 35.90625 18 C 33.261719 18 30.816406 16.5 29.6875 14.15625 L 26.09375 6.96875 C 24.640625 3.953125 21.5 2 18.09375 2 Z M 2 36 L 8.03125 36 L 8.3125 43 L 10.6875 43 L 10.96875 36 L 12.03125 36 L 12.3125 43 L 14.6875 43 L 14.96875 36 L 20.03125 36 L 20.3125 43 L 22.6875 43 L 22.96875 36 L 24.03125 36 L 24.3125 43 L 26.6875 43 L 26.96875 36 L 28.03125 36 L 28.3125 43 L 30.6875 43 L 30.96875 36 L 36.03125 36 L 36.3125 43 L 38.6875 43 L 38.96875 36 L 40.03125 36 L 40.3125 43 L 42.6875 43 L 42.96875 36 L 48 36 L 48 45 C 48 45.550781 47.550781 46 47 46 L 3 46 C 2.449219 46 2 45.550781 2 45 Z "></path>
</g>
</svg>
