<svg xmlns="http://www.w3.org/2000/svg" xmlns:xlink="http://www.w3.org/1999/xlink" viewBox="0 0 50 50" version="1.1">
<g id="surface1">
<path style=" " d="M 3 4 C 1.355469 4 0 5.355469 0 7 L 0 43 C 0 44.644531 1.355469 46 3 46 L 12 46 L 12 4 Z M 38 4 L 38 46 L 47 46 C 48.652344 46 50 44.652344 50 43 L 50 7 C 50 5.347656 48.652344 4 47 4 Z M 16 4.28125 C 15.585938 4.28125 15.1875 4.40625 14.90625 4.6875 L 14.75 4.84375 L 14 6.8125 L 14 43.1875 L 14.75 45.15625 L 14.90625 45.3125 C 15.1875 45.59375 15.578125 45.75 16 45.75 C 16.421875 45.75 16.8125 45.59375 17.09375 45.3125 L 17.25 45.15625 L 18 43.1875 L 18 6.8125 L 17.25 4.84375 L 17.09375 4.6875 C 16.8125 4.40625 16.414063 4.28125 16 4.28125 Z M 21.6875 4.28125 C 21.382813 4.332031 21.117188 4.476563 20.90625 4.6875 L 20.75 4.84375 L 20 6.8125 L 20 43.1875 L 20.75 45.15625 L 20.90625 45.3125 C 21.1875 45.59375 21.578125 45.75 22 45.75 C 22.421875 45.75 22.8125 45.59375 23.09375 45.3125 L 23.25 45.15625 L 24 43.1875 L 24 6.8125 L 23.25 4.84375 L 23.09375 4.6875 C 22.742188 4.335938 22.191406 4.195313 21.6875 4.28125 Z M 27.6875 4.28125 C 27.382813 4.332031 27.117188 4.476563 26.90625 4.6875 L 26.75 4.84375 L 26 6.8125 L 26 43.1875 L 26.75 45.15625 L 26.90625 45.3125 C 27.1875 45.59375 27.578125 45.75 28 45.75 C 28.421875 45.75 28.8125 45.59375 29.09375 45.3125 L 29.25 45.15625 L 30 43.1875 L 30 6.8125 L 29.25 4.84375 L 29.09375 4.6875 C 28.742188 4.335938 28.191406 4.195313 27.6875 4.28125 Z M 33.6875 4.28125 C 33.382813 4.332031 33.117188 4.476563 32.90625 4.6875 L 32.75 4.84375 L 32 6.8125 L 32 43.1875 L 32.75 45.15625 L 32.90625 45.3125 C 33.1875 45.59375 33.578125 45.75 34 45.75 C 34.421875 45.75 34.8125 45.59375 35.09375 45.3125 L 35.25 45.15625 L 36 43.1875 L 36 6.8125 L 35.25 4.84375 L 35.09375 4.6875 C 34.742188 4.335938 34.191406 4.195313 33.6875 4.28125 Z M 3 6 L 10 6 L 10 9.125 L 5.40625 9.3125 C 5.207031 9.3125 5 9.488281 5 9.6875 L 5 11.3125 C 5 11.511719 5.207031 11.6875 5.40625 11.6875 L 10 11.875 L 10 13.125 L 5.40625 13.3125 C 5.207031 13.3125 5 13.488281 5 13.6875 L 5 15.3125 C 5 15.511719 5.207031 15.6875 5.40625 15.6875 L 10 15.875 L 10 19.125 L 5.40625 19.3125 C 5.207031 19.3125 5 19.488281 5 19.6875 L 5 21.3125 C 5 21.511719 5.207031 21.6875 5.40625 21.6875 L 10 21.875 L 10 23.125 L 5.40625 23.3125 C 5.207031 23.3125 5 23.488281 5 23.6875 L 5 25.3125 C 5 25.511719 5.207031 25.6875 5.40625 25.6875 L 10 25.875 L 10 27.125 L 5.40625 27.3125 C 5.207031 27.3125 5 27.488281 5 27.6875 L 5 29.3125 C 5 29.511719 5.207031 29.6875 5.40625 29.6875 L 10 29.875 L 10 33.125 L 5.40625 33.3125 C 5.207031 33.3125 5 33.488281 5 33.6875 L 5 35.3125 C 5 35.511719 5.207031 35.6875 5.40625 35.6875 L 10 35.875 L 10 37.125 L 5.40625 37.3125 C 5.207031 37.3125 5 37.488281 5 37.6875 L 5 39.3125 C 5 39.511719 5.207031 39.6875 5.40625 39.6875 L 10 39.875 L 10 44 L 3 44 C 2.445313 44 2 43.554688 2 43 L 2 7 C 2 6.445313 2.445313 6 3 6 Z M 42.5 10 C 43.328125 10 44 10.671875 44 11.5 C 44 12.328125 43.328125 13 42.5 13 C 41.671875 13 41 12.328125 41 11.5 C 41 10.671875 41.671875 10 42.5 10 Z M 45.5 13 C 46.328125 13 47 13.671875 47 14.5 C 47 15.328125 46.328125 16 45.5 16 C 44.671875 16 44 15.328125 44 14.5 C 44 13.671875 44.671875 13 45.5 13 Z M 42.5 16 C 43.328125 16 44 16.671875 44 17.5 C 44 18.328125 43.328125 19 42.5 19 C 41.671875 19 41 18.328125 41 17.5 C 41 16.671875 41.671875 16 42.5 16 Z M 45.5 19 C 46.328125 19 47 19.671875 47 20.5 C 47 21.328125 46.328125 22 45.5 22 C 44.671875 22 44 21.328125 44 20.5 C 44 19.671875 44.671875 19 45.5 19 Z M 42.5 22 C 43.328125 22 44 22.671875 44 23.5 C 44 24.328125 43.328125 25 42.5 25 C 41.671875 25 41 24.328125 41 23.5 C 41 22.671875 41.671875 22 42.5 22 Z M 45.5 25 C 46.328125 25 47 25.671875 47 26.5 C 47 27.328125 46.328125 28 45.5 28 C 44.671875 28 44 27.328125 44 26.5 C 44 25.671875 44.671875 25 45.5 25 Z M 42.5 28 C 43.328125 28 44 28.671875 44 29.5 C 44 30.328125 43.328125 31 42.5 31 C 41.671875 31 41 30.328125 41 29.5 C 41 28.671875 41.671875 28 42.5 28 Z M 45.5 31 C 46.328125 31 47 31.671875 47 32.5 C 47 33.328125 46.328125 34 45.5 34 C 44.671875 34 44 33.328125 44 32.5 C 44 31.671875 44.671875 31 45.5 31 Z M 42.5 34 C 43.328125 34 44 34.671875 44 35.5 C 44 36.328125 43.328125 37 42.5 37 C 41.671875 37 41 36.328125 41 35.5 C 41 34.671875 41.671875 34 42.5 34 Z M 45.5 37 C 46.328125 37 47 37.671875 47 38.5 C 47 39.328125 46.328125 40 45.5 40 C 44.671875 40 44 39.328125 44 38.5 C 44 37.671875 44.671875 37 45.5 37 Z "></path>
</g>
</svg>
