<svg xmlns="http://www.w3.org/2000/svg" xmlns:xlink="http://www.w3.org/1999/xlink" viewBox="0 0 50 50" version="1.1">
<g id="surface1">
<path style=" " d="M 24 4 C 23.898438 4 14 4.035156 14 7 C 14 7.90625 14.835938 8.207031 15.332031 8.390625 C 16.882813 8.953125 21 10.445313 21 25 L 21 48 L 27 48 L 27 25 C 27 10.445313 31.117188 8.953125 32.667969 8.390625 C 33.164063 8.207031 34 7.90625 34 7 C 34 4.035156 24.40625 4 24 4 Z M 40.984375 4 C 40.4375 4.007813 40 4.453125 40 5 L 40 6.84375 C 39.984375 6.949219 39.984375 7.054688 40 7.164063 L 40 12.40625 C 39.390625 12.140625 38.703125 12 38 12 C 35.789063 12 34 13.34375 34 15 C 34 16.65625 35.789063 18 38 18 C 40.117188 17.996094 41.867188 16.757813 41.988281 15.171875 C 41.996094 15.113281 42 15.058594 42 15 L 42 7.945313 C 43.792969 7.933594 45.136719 7.570313 45.886719 6.945313 C 46.800781 6.179688 46.988281 5.140625 46.988281 5.140625 C 47.050781 4.695313 46.8125 4.265625 46.402344 4.085938 C 45.992188 3.902344 45.511719 4.019531 45.230469 4.363281 C 45.214844 4.378906 44.9375 4.609375 44.589844 4.757813 C 44.242188 4.902344 43.824219 5 43.5 5 C 42.515625 5 42.351563 4.9375 41.707031 4.292969 C 41.515625 4.101563 41.253906 3.996094 40.984375 4 Z M 10 12 C 7.25 12 5 14.25 5 17 L 5 27 C 5 29.757813 7.242188 32 10 32 L 13 32 C 13.554688 32 14 31.550781 14 31 C 14 26.308594 11.667969 24.71875 9.796875 23.441406 C 8.175781 22.335938 7 21.535156 7 19 L 7 17.492188 C 7.007813 17.410156 7.007813 17.324219 7.007813 17.234375 L 7 17 C 7 15.332031 8.332031 14 10 14 C 11.667969 14 13 15.332031 13 17 C 13 17.664063 12.828125 18.160156 12.628906 18.4375 C 12.429688 18.71875 12.265625 18.796875 12 18.796875 C 11.316406 18.796875 11.078125 18.574219 10.992188 17.878906 C 10.9375 17.359375 10.488281 16.96875 9.960938 16.984375 C 9.679688 16.996094 9.414063 17.125 9.234375 17.339844 C 9.050781 17.558594 8.96875 17.839844 9.007813 18.121094 C 9.179688 19.554688 10.363281 20.679688 11.796875 20.78125 C 11.863281 20.792969 11.933594 20.800781 12 20.796875 C 12.09375 20.800781 12.1875 20.789063 12.28125 20.761719 C 13.078125 20.671875 13.800781 20.238281 14.253906 19.605469 C 14.738281 18.929688 14.96875 18.074219 14.992188 17.136719 C 14.996094 17.089844 15 17.046875 15 17 C 15 16.960938 15 16.925781 14.996094 16.890625 C 14.933594 14.191406 12.710938 12 10 12 Z M 3 20 C 2.449219 20 2 20.449219 2 21 C 2 21.550781 2.449219 22 3 22 C 3.550781 22 4 21.550781 4 21 C 4 20.449219 3.550781 20 3 20 Z M 38 22 C 35.550781 22 33.613281 22 32.300781 23.285156 C 32.039063 23.542969 31.957031 23.921875 32.058594 24.277344 C 32.160156 24.628906 32.464844 24.902344 32.820313 24.984375 C 32.839844 24.988281 35 25.546875 35 31.011719 L 41 31.011719 C 41 25.550781 43.152344 24.988281 43.144531 24.988281 C 43.519531 24.933594 43.832031 24.671875 43.953125 24.3125 C 44.066406 23.949219 43.972656 23.550781 43.699219 23.285156 C 42.386719 22 40.449219 22 38 22 Z M 3 24 C 2.449219 24 2 24.449219 2 25 C 2 25.550781 2.449219 26 3 26 C 3.550781 26 4 25.550781 4 25 C 4 24.449219 3.550781 24 3 24 Z M 3 28 C 2.449219 28 2 28.449219 2 29 C 2 29.550781 2.449219 30 3 30 C 3.550781 30 4 29.550781 4 29 C 4 28.449219 3.550781 28 3 28 Z M 35 33.011719 L 35 48.011719 L 41 48.011719 L 41 33.011719 Z M 8 34 L 8 48 L 14 48 L 14 34 Z M 33 36 C 32.449219 36 32 36.449219 32 37 C 32 37.550781 32.449219 38 33 38 C 33.550781 38 34 37.550781 34 37 C 34 36.449219 33.550781 36 33 36 Z M 33 40 C 32.449219 40 32 40.449219 32 41 C 32 41.550781 32.449219 42 33 42 C 33.550781 42 34 41.550781 34 41 C 34 40.449219 33.550781 40 33 40 Z M 33 44 C 32.449219 44 32 44.449219 32 45 C 32 45.550781 32.449219 46 33 46 C 33.550781 46 34 45.550781 34 45 C 34 44.449219 33.550781 44 33 44 Z "></path>
</g>
</svg>
