<svg xmlns="http://www.w3.org/2000/svg" xmlns:xlink="http://www.w3.org/1999/xlink" viewBox="0 0 50 50" version="1.1">
<g id="surface1">
<path style=" " d="M 41.800781 1 C 41.640625 1 41.488281 1.0625 41.375 1.175781 C 41.261719 1.289063 41.199219 1.441406 41.199219 1.601563 C 41.199219 1.757813 41.261719 1.910156 41.375 2.023438 C 41.488281 2.136719 41.640625 2.199219 41.800781 2.199219 C 42.132813 2.199219 42.398438 1.929688 42.402344 1.601563 C 42.398438 1.269531 42.132813 1 41.800781 1 Z M 40.199219 1.199219 C 40.039063 1.199219 39.886719 1.261719 39.773438 1.375 C 39.664063 1.488281 39.597656 1.640625 39.597656 1.800781 C 39.601563 2.132813 39.867188 2.398438 40.199219 2.398438 C 40.359375 2.402344 40.511719 2.335938 40.625 2.226563 C 40.738281 2.113281 40.800781 1.960938 40.800781 1.800781 C 40.800781 1.640625 40.738281 1.488281 40.625 1.375 C 40.511719 1.261719 40.359375 1.199219 40.199219 1.199219 Z M 38.597656 1.5 C 38.269531 1.5 38 1.769531 38 2.101563 C 38 2.429688 38.269531 2.699219 38.597656 2.699219 C 38.929688 2.699219 39.199219 2.429688 39.199219 2.101563 C 39.199219 1.769531 38.929688 1.5 38.597656 1.5 Z M 36.957031 1.800781 C 36.644531 1.824219 36.398438 2.085938 36.402344 2.398438 C 36.402344 2.730469 36.667969 3 37 3 C 37.332031 3 37.597656 2.730469 37.597656 2.398438 C 37.597656 2.070313 37.332031 1.800781 37 1.800781 C 36.984375 1.800781 36.972656 1.800781 36.957031 1.800781 Z M 35.300781 2.199219 C 35.140625 2.199219 34.988281 2.261719 34.875 2.375 C 34.761719 2.488281 34.699219 2.640625 34.699219 2.800781 C 34.699219 2.960938 34.761719 3.113281 34.875 3.226563 C 34.988281 3.335938 35.140625 3.402344 35.300781 3.398438 C 35.632813 3.398438 35.898438 3.132813 35.902344 2.800781 C 35.902344 2.640625 35.835938 2.488281 35.726563 2.375 C 35.613281 2.261719 35.460938 2.199219 35.300781 2.199219 Z M 42.085938 2.398438 C 42.027344 2.402344 41.972656 2.40625 41.917969 2.414063 L 36.015625 3.515625 C 36.011719 3.519531 36.007813 3.519531 36.003906 3.519531 C 35.253906 3.667969 34.664063 4.050781 34.199219 4.398438 C 34.160156 4.429688 34.125 4.460938 34.089844 4.496094 L 19.242188 19.488281 C 18.234375 18.546875 16.902344 18 15.5 18 C 12.691406 18 10.34375 20.101563 10.03125 22.894531 C 10.011719 23.09375 10 23.296875 10 23.5 L 10 23.96875 C 9.933594 24.902344 9.53125 26 8 26 C 7.863281 26 7.753906 26.023438 7.667969 26.046875 C 3.359375 26.46875 0 30.15625 0 34.5 C 0 34.59375 0.00390625 34.710938 0.0078125 34.820313 L 0.015625 34.953125 C -0.144531 38.507813 1.339844 42.007813 4.195313 44.808594 C 7.089844 47.707031 9.964844 49 13.5 49 C 17.320313 49 19.753906 46.5625 20.609375 45.707031 C 22.179688 44.132813 22.621094 42.730469 23.011719 41.496094 C 23.234375 40.777344 23.429688 40.15625 23.828125 39.554688 C 24.519531 38.523438 25.5 37.957031 26.542969 37.359375 C 28.164063 36.425781 30 35.371094 30 32.5 C 30 31.085938 29.421875 29.957031 28.488281 29.328125 L 41.507813 16.308594 C 41.789063 16.023438 41.867188 16 42.097656 16 C 42.128906 16 42.160156 16 42.191406 15.996094 L 43.292969 15.894531 C 43.328125 15.894531 43.363281 15.886719 43.394531 15.878906 C 44.023438 15.753906 44.730469 15.484375 45.308594 14.90625 L 47.707031 12.507813 C 48.097656 12.117188 48.097656 11.484375 47.707031 11.09375 L 46.808594 10.191406 C 46.617188 10.003906 46.355469 9.898438 46.085938 9.898438 C 46.027344 9.902344 45.972656 9.90625 45.917969 9.914063 L 40.015625 11.015625 C 40.011719 11.019531 40.007813 11.019531 40.003906 11.019531 C 39.253906 11.167969 38.664063 11.550781 38.199219 11.902344 C 38.160156 11.929688 38.125 11.960938 38.09375 11.996094 L 24.160156 26 L 23 26 C 22.449219 26 22 25.550781 22 25 L 22 24.390625 L 37.511719 8.804688 C 37.789063 8.527344 37.867188 8.5 38.097656 8.5 C 38.128906 8.5 38.160156 8.5 38.191406 8.496094 L 39.292969 8.398438 C 39.328125 8.394531 39.363281 8.386719 39.394531 8.382813 C 40.023438 8.253906 40.730469 7.984375 41.308594 7.40625 L 43.707031 5.007813 C 44.097656 4.617188 44.097656 3.984375 43.707031 3.59375 L 42.808594 2.695313 C 42.617188 2.503906 42.355469 2.398438 42.085938 2.398438 Z M 41.324219 4.5625 L 39.890625 5.992188 C 39.671875 6.210938 39.382813 6.335938 39.019531 6.414063 L 38.011719 6.503906 L 38.097656 6.5 C 37.332031 6.5 36.613281 6.875 36.09375 7.390625 C 36.09375 7.394531 36.09375 7.394531 36.09375 7.394531 L 17 26.582031 L 16.011719 25.59375 L 35.429688 5.984375 C 35.761719 5.742188 36.15625 5.527344 36.394531 5.480469 Z M 45.800781 8.5 C 45.640625 8.5 45.488281 8.5625 45.375 8.675781 C 45.261719 8.789063 45.199219 8.941406 45.199219 9.101563 C 45.199219 9.257813 45.261719 9.410156 45.375 9.523438 C 45.488281 9.636719 45.640625 9.699219 45.800781 9.699219 C 46.132813 9.699219 46.398438 9.429688 46.402344 9.101563 C 46.398438 8.769531 46.132813 8.5 45.800781 8.5 Z M 44.199219 8.699219 C 44.039063 8.699219 43.886719 8.761719 43.773438 8.875 C 43.664063 8.988281 43.597656 9.140625 43.597656 9.300781 C 43.601563 9.632813 43.867188 9.898438 44.199219 9.898438 C 44.359375 9.902344 44.511719 9.835938 44.625 9.726563 C 44.738281 9.613281 44.800781 9.460938 44.800781 9.300781 C 44.800781 9.140625 44.738281 8.988281 44.625 8.875 C 44.511719 8.761719 44.359375 8.699219 44.199219 8.699219 Z M 42.597656 9 C 42.269531 9 42 9.269531 42 9.601563 C 42 9.929688 42.269531 10.199219 42.597656 10.199219 C 42.929688 10.199219 43.199219 9.929688 43.199219 9.601563 C 43.199219 9.269531 42.929688 9 42.597656 9 Z M 40.957031 9.300781 C 40.644531 9.324219 40.398438 9.585938 40.402344 9.898438 C 40.402344 10.230469 40.667969 10.5 41 10.5 C 41.332031 10.5 41.597656 10.230469 41.597656 9.898438 C 41.597656 9.570313 41.332031 9.300781 41 9.300781 C 40.984375 9.300781 40.972656 9.300781 40.957031 9.300781 Z M 39.300781 9.699219 C 39.140625 9.699219 38.988281 9.761719 38.875 9.875 C 38.761719 9.988281 38.699219 10.140625 38.699219 10.300781 C 38.699219 10.460938 38.761719 10.613281 38.875 10.726563 C 38.988281 10.835938 39.140625 10.902344 39.300781 10.902344 C 39.632813 10.898438 39.898438 10.632813 39.902344 10.300781 C 39.902344 10.140625 39.835938 9.988281 39.726563 9.875 C 39.613281 9.761719 39.460938 9.699219 39.300781 9.699219 Z M 45.324219 12.0625 L 43.890625 13.492188 C 43.671875 13.710938 43.382813 13.835938 43.019531 13.910156 L 42.011719 14.003906 L 42.097656 14 C 41.332031 14 40.613281 14.375 40.09375 14.890625 L 22.402344 32.585938 L 21.410156 31.597656 L 39.429688 13.484375 C 39.761719 13.242188 40.15625 13.027344 40.394531 12.980469 Z M 10.011719 29 L 13 31.988281 L 11.988281 33 L 9 30.011719 Z M 16.011719 35 L 19 37.988281 L 17.988281 39 L 15 36.011719 Z M 16 42 C 16.550781 42 17 42.449219 17 43 C 17 43.550781 16.550781 44 16 44 C 15.449219 44 15 43.550781 15 43 C 15 42.449219 15.449219 42 16 42 Z M 12 43 C 12.550781 43 13 43.449219 13 44 C 13 44.550781 12.550781 45 12 45 C 11.449219 45 11 44.550781 11 44 C 11 43.449219 11.449219 43 12 43 Z "></path>
</g>
</svg>
