<svg xmlns="http://www.w3.org/2000/svg" xmlns:xlink="http://www.w3.org/1999/xlink" viewBox="0 0 50 50" version="1.1">
<g id="surface1">
<path style=" " d="M 27 2.003906 C 26.761719 2.003906 26.527344 2.089844 26.339844 2.257813 L 20.410156 7.679688 C 20.242188 7.832031 20.132813 8.035156 20.097656 8.257813 L 19.820313 10 L 17.675781 22.847656 L 19.417969 24.589844 L 21.847656 10 L 23 10 L 23 28.171875 L 25 30.171875 L 25 10 L 29 10 L 29 12 L 27 12 L 27 14 L 29 14 L 29 16 L 27 16 L 27 18 L 29 18 L 29 20 L 27 20 L 27 22 L 29 22 L 29 24 L 27 24 L 27 26 L 29 26 L 29 28 L 27 28 L 27 30 L 29 30 L 29 32 L 25.414063 32 L 12.707031 19.292969 L 12.746094 19.253906 C 12.894531 19.105469 12.933594 18.871094 12.839844 18.679688 L 11.3125 15.621094 C 11.160156 15.3125 10.75 15.25 10.511719 15.488281 L 9.707031 16.292969 L 7.707031 14.292969 L 6.292969 15.707031 L 8.292969 17.707031 L 7.492188 18.511719 C 7.25 18.75 7.3125 19.15625 7.617188 19.3125 L 10.675781 20.839844 C 10.871094 20.9375 11.101563 20.898438 11.253906 20.746094 L 11.292969 20.707031 L 17.074219 26.484375 L 14.015625 44.835938 C 13.964844 45.125 14.046875 45.421875 14.234375 45.644531 C 14.425781 45.871094 14.707031 46 15 46 C 15 47.105469 15.894531 48 17 48 C 18.105469 48 19 47.105469 19 46 L 35 46 C 35 47.105469 35.894531 48 37 48 C 38.105469 48 39 47.105469 39 46 C 39.292969 46 39.574219 45.871094 39.765625 45.644531 C 39.953125 45.421875 40.035156 45.125 39.984375 44.835938 L 39.015625 39 L 39.585938 39 L 40.292969 39.707031 C 40.542969 39.96875 40.917969 40.074219 41.265625 39.980469 C 41.617188 39.890625 41.890625 39.617188 41.980469 39.265625 C 42.074219 38.917969 41.96875 38.542969 41.707031 38.292969 L 40.707031 37.292969 C 40.519531 37.105469 40.265625 37 40 37 L 38.679688 37 L 38.347656 35 L 40 35 C 40.359375 35.003906 40.695313 34.816406 40.878906 34.503906 C 41.058594 34.191406 41.058594 33.808594 40.878906 33.496094 C 40.695313 33.183594 40.359375 32.996094 40 33 L 38.015625 33 L 34.179688 10 L 34.183594 10 L 34.128906 9.695313 L 33.984375 8.835938 C 33.984375 8.828125 33.980469 8.824219 33.980469 8.816406 L 33.882813 8.25 C 33.847656 8.03125 33.734375 7.832031 33.574219 7.679688 L 27.65625 2.257813 C 27.472656 2.089844 27.238281 2.003906 27 2.003906 Z M 31 10 L 32.152344 10 L 35.820313 32 L 31 32 Z M 18.8125 28.222656 L 22.585938 32 L 18.183594 32 Z "></path>
</g>
</svg>
