<svg xmlns="http://www.w3.org/2000/svg" xmlns:xlink="http://www.w3.org/1999/xlink" viewBox="0 0 50 50" version="1.1">
<g id="surface1">
<path style=" " d="M 25 1 C 24.242188 1 23.589844 1.441406 23.25 2.0625 C 19.5 2.199219 16.207031 2.722656 13.40625 3.5625 C 13.042969 3.207031 12.546875 3 12 3 C 10.953125 3 10.121094 3.789063 10.03125 4.8125 C 4.792969 7.136719 2 10.480469 2 13.125 C 2 16.546875 5.328125 19.597656 10.5625 21.59375 C 10.925781 21.226563 11.441406 21 12 21 C 12.992188 21 13.8125 21.710938 13.96875 22.65625 C 16.777344 23.382813 19.921875 23.855469 23.28125 23.96875 C 23.632813 23.390625 24.273438 23 25 23 C 25.726563 23 26.367188 23.390625 26.71875 23.96875 C 30.078125 23.851563 33.222656 23.382813 36.03125 22.65625 C 36.191406 21.710938 37.011719 21 38 21 C 38.558594 21 39.074219 21.226563 39.4375 21.59375 C 44.664063 19.609375 48 16.582031 48 13.1875 C 48 11.34375 46.652344 9.15625 44.09375 7.21875 L 31.03125 15 C 31.03125 15 30.566406 15.371094 30.6875 15.90625 C 31.027344 17.441406 29.660156 18.863281 28.09375 19 C 26.527344 19.136719 25.136719 17.972656 25 16.40625 C 24.859375 14.839844 26.027344 13.449219 27.59375 13.3125 C 28.105469 13.265625 28.597656 13.347656 29.03125 13.5625 C 29.550781 13.824219 30.1875 13.59375 30.1875 13.59375 L 41.46875 5.5625 C 40.675781 5.140625 39.839844 4.742188 38.90625 4.375 C 38.644531 3.574219 37.886719 3 37 3 C 36.5625 3 36.171875 3.136719 35.84375 3.375 C 33.210938 2.648438 30.171875 2.1875 26.75 2.0625 C 26.410156 1.441406 25.757813 1 25 1 Z M 41.46875 5.5625 C 42.453125 6.085938 43.328125 6.636719 44.09375 7.21875 L 48.125 4.84375 C 48.914063 4.378906 49.171875 3.355469 48.65625 2.5625 C 48.152344 1.773438 47.085938 1.5625 46.34375 2.09375 Z M 1.96875 18.25 L 1.96875 36 C 1.96875 39.414063 5.074219 42.433594 10.03125 44.4375 C 10.003906 44.300781 10 44.144531 10 44 C 10 43.261719 10.40625 42.628906 11 42.28125 L 11 24.71875 C 10.550781 24.457031 10.203125 24.046875 10.0625 23.53125 C 6.523438 22.195313 3.710938 20.367188 1.96875 18.25 Z M 48 18.28125 C 46.261719 20.386719 43.46875 22.203125 39.9375 23.53125 C 39.796875 24.046875 39.449219 24.457031 39 24.71875 L 39 42.28125 C 39.597656 42.628906 40 43.261719 40 44 C 40 44.144531 39.996094 44.269531 39.96875 44.40625 C 44.917969 42.402344 48 39.414063 48 36 Z M 13.25 24.53125 C 13.167969 24.597656 13.09375 24.664063 13 24.71875 L 13 42.28125 C 13.59375 42.628906 14 43.261719 14 44 C 14 44.605469 13.738281 45.132813 13.3125 45.5 C 16.253906 46.316406 19.613281 46.84375 23.25 46.96875 C 23.09375 46.683594 23 46.347656 23 46 C 23 45.277344 23.394531 44.664063 23.96875 44.3125 L 23.96875 26.6875 C 23.671875 26.503906 23.417969 26.246094 23.25 25.9375 C 19.640625 25.816406 16.25 25.335938 13.25 24.53125 Z M 36.71875 24.53125 C 33.722656 25.332031 30.355469 25.8125 26.75 25.9375 C 26.566406 26.273438 26.304688 26.566406 25.96875 26.75 L 25.96875 44.25 C 26.585938 44.589844 27 45.246094 27 46 C 27 46.347656 26.902344 46.652344 26.75 46.9375 C 30.382813 46.8125 33.75 46.316406 36.6875 45.5 C 36.261719 45.132813 36 44.605469 36 44 C 36 43.261719 36.402344 42.628906 37 42.28125 L 37 24.71875 C 36.90625 24.664063 36.804688 24.601563 36.71875 24.53125 Z "></path>
</g>
</svg>
