<svg xmlns="http://www.w3.org/2000/svg" xmlns:xlink="http://www.w3.org/1999/xlink" viewBox="0 0 26 26" version="1.1">
<g id="surface1">
<path style=" " d="M 2.34375 0 C 1.398438 0 0.855469 0.390625 0.5625 0.71875 C -0.0625 1.414063 0 2.300781 0 2.46875 C 0 3.183594 0.4375 3.96875 1.3125 3.96875 C 2.03125 3.96875 2.972656 3.039063 2.03125 1.875 C 2.117188 1.726563 2.625 1.390625 3.0625 1.90625 C 3.304688 2.191406 3.410156 3.042969 3.1875 4.1875 C 2.875 5.78125 1.578125 8.71875 0.59375 12.59375 C -0.40625 16.542969 0.230469 20.058594 2 22.34375 C 3.988281 24.910156 7.792969 26 13 26 C 18.207031 26 22.015625 24.910156 24 22.34375 C 25.769531 20.058594 26.40625 16.542969 25.40625 12.59375 C 24.425781 8.71875 23.125 5.78125 22.8125 4.1875 C 22.589844 3.042969 22.695313 2.191406 22.9375 1.90625 C 23.375 1.390625 23.882813 1.726563 23.96875 1.875 C 23.027344 3.039063 23.96875 3.9375 24.6875 3.9375 C 25.5625 3.9375 26 3.183594 26 2.46875 C 26 2.300781 26.0625 1.414063 25.4375 0.71875 C 25.144531 0.390625 24.601563 0 23.65625 0 C 22.910156 0 22.191406 0.355469 21.6875 0.96875 C 21.320313 1.414063 21.066406 2 21.0625 3 L 19 3 L 19 5 L 21.3125 5 C 22.804688 12.027344 26.453125 23.125 13 23.125 C -0.453125 23.125 3.195313 12.027344 4.6875 5 L 7 5 L 7 3 L 4.9375 3 C 4.933594 2 4.679688 1.414063 4.3125 0.96875 C 3.808594 0.355469 3.089844 0 2.34375 0 Z M 9 2 C 8.449219 2 8 2.449219 8 3 L 8 4 C 8 4.550781 8.449219 5 9 5 L 17 5 C 17.550781 5 18 4.550781 18 4 L 18 3 C 18 2.449219 17.550781 2 17 2 Z M 10.5 2.5625 C 11.023438 2.5625 11.4375 2.976563 11.4375 3.5 C 11.4375 4.023438 11.023438 4.4375 10.5 4.4375 C 9.976563 4.4375 9.5625 4.023438 9.5625 3.5 C 9.5625 2.976563 9.976563 2.5625 10.5 2.5625 Z M 15.5 2.5625 C 16.023438 2.5625 16.4375 2.976563 16.4375 3.5 C 16.4375 4.023438 16.023438 4.4375 15.5 4.4375 C 14.976563 4.4375 14.5625 4.023438 14.5625 3.5 C 14.5625 2.976563 14.976563 2.5625 15.5 2.5625 Z M 8.5 6 C 7.949219 6 7.5 6.449219 7.5 7 L 7.5 8 C 7.5 8.550781 7.949219 9 8.5 9 L 17.5 9 C 18.050781 9 18.5 8.550781 18.5 8 L 18.5 7 C 18.5 6.449219 18.050781 6 17.5 6 Z M 10 6.5625 C 10.523438 6.5625 10.9375 6.976563 10.9375 7.5 C 10.9375 8.023438 10.523438 8.4375 10 8.4375 C 9.476563 8.4375 9.0625 8.023438 9.0625 7.5 C 9.0625 6.976563 9.476563 6.5625 10 6.5625 Z M 16 6.5625 C 16.523438 6.5625 16.9375 6.976563 16.9375 7.5 C 16.9375 8.023438 16.523438 8.4375 16 8.4375 C 15.476563 8.4375 15.0625 8.023438 15.0625 7.5 C 15.0625 6.976563 15.476563 6.5625 16 6.5625 Z M 8 10 C 7.449219 10 7 10.449219 7 11 L 7 12 C 7 12.550781 7.449219 13 8 13 L 18 13 C 18.550781 13 19 12.550781 19 12 L 19 11 C 19 10.449219 18.550781 10 18 10 Z M 9.5 10.5625 C 10.023438 10.5625 10.4375 10.976563 10.4375 11.5 C 10.4375 12.023438 10.023438 12.4375 9.5 12.4375 C 8.976563 12.4375 8.5625 12.023438 8.5625 11.5 C 8.5625 10.976563 8.976563 10.5625 9.5 10.5625 Z M 16.5 10.5625 C 17.023438 10.5625 17.4375 10.976563 17.4375 11.5 C 17.4375 12.023438 17.023438 12.4375 16.5 12.4375 C 15.976563 12.4375 15.5625 12.023438 15.5625 11.5 C 15.5625 10.976563 15.976563 10.5625 16.5 10.5625 Z M 7.5 14 C 6.949219 14 6.5 14.449219 6.5 15 L 6.5 16 C 6.5 16.550781 6.949219 17 7.5 17 L 18.5 17 C 19.050781 17 19.5 16.550781 19.5 16 L 19.5 15 C 19.5 14.449219 19.050781 14 18.5 14 Z M 9 14.5625 C 9.523438 14.5625 9.9375 14.976563 9.9375 15.5 C 9.9375 16.023438 9.523438 16.4375 9 16.4375 C 8.476563 16.4375 8.0625 16.023438 8.0625 15.5 C 8.0625 14.976563 8.476563 14.5625 9 14.5625 Z M 17 14.5625 C 17.523438 14.5625 17.9375 14.976563 17.9375 15.5 C 17.9375 16.023438 17.523438 16.4375 17 16.4375 C 16.476563 16.4375 16.0625 16.023438 16.0625 15.5 C 16.0625 14.976563 16.476563 14.5625 17 14.5625 Z M 7 18 C 6.449219 18 6 18.449219 6 19 L 6 20 C 6 20.550781 6.449219 21 7 21 L 19 21 C 19.550781 21 20 20.550781 20 20 L 20 19 C 20 18.449219 19.550781 18 19 18 Z M 8.5 18.5625 C 9.023438 18.5625 9.4375 18.976563 9.4375 19.5 C 9.4375 20.023438 9.023438 20.4375 8.5 20.4375 C 7.976563 20.4375 7.5625 20.023438 7.5625 19.5 C 7.5625 18.976563 7.976563 18.5625 8.5 18.5625 Z M 17.5 18.5625 C 18.023438 18.5625 18.4375 18.976563 18.4375 19.5 C 18.4375 20.023438 18.023438 20.4375 17.5 20.4375 C 16.976563 20.4375 16.5625 20.023438 16.5625 19.5 C 16.5625 18.976563 16.976563 18.5625 17.5 18.5625 Z "></path>
</g>
</svg>
