<svg xmlns="http://www.w3.org/2000/svg" viewBox="0 0 50 50">
  <path fill="url(#a1)" d="M 29 2 C 18.518434 2 10 10.518434 10 21 C 10 31.481566 18.518434 40 29 40 C 39.481566 40 48 31.481566 48 21 C 48 10.518434 39.481566 2 29 2 z M 29 4 C 38.400685 4 46 11.599315 46 21 C 46 30.400685 38.400685 38 29 38 C 19.599315 38 12 30.400685 12 21 C 12 11.599315 19.599315 4 29 4 z M 29 14 C 25.145851 14 22 17.145851 22 21 C 22 24.854149 25.145851 28 29 28 C 32.854149 28 36 24.854149 36 21 C 36 17.145851 32.854149 14 29 14 z M 8.8867188 14.982422 C 7.0687188 17.895422 6 21.321 6 25 C 6 35.477 14.523 44 25 44 C 28.679 44 32.104578 42.931281 35.017578 41.113281 C 33.109578 41.683281 31.093 42 29 42 C 28.279 42 27.567234 41.963578 26.865234 41.892578 C 26.252234 41.960578 25.631 42 25 42 C 15.626 42 8 34.374 8 25 C 8 24.369 8.0394219 23.747766 8.1074219 23.134766 C 8.0364219 22.432766 8 21.721 8 21 C 8 18.907 8.3167188 16.890422 8.8867188 14.982422 z M 29 16 C 31.773268 16 34 18.226732 34 21 C 34 23.773268 31.773268 26 29 26 C 26.226732 26 24 23.773268 24 21 C 24 18.226732 26.226732 16 29 16 z M 4.8867188 18.982422 C 3.0687187 21.895422 2 25.321 2 29 C 2 39.477 10.523 48 21 48 C 24.679 48 28.104578 46.931281 31.017578 45.113281 C 29.109578 45.683281 27.093 46 25 46 C 24.279 46 23.567234 45.963578 22.865234 45.892578 C 22.252234 45.960578 21.631 46 21 46 C 11.626 46 4 38.374 4 29 C 4 28.369 4.0394219 27.747766 4.1074219 27.134766 C 4.0364219 26.432766 4 25.721 4 25 C 4 22.907 4.3167187 20.890422 4.8867188 18.982422 z M 29 19 A 2 2 0 0 0 27 21 A 2 2 0 0 0 29 23 A 2 2 0 0 0 31 21 A 2 2 0 0 0 29 19 z"></path>
  <radialGradient id="a1">
    <stop offset="0%" stop-color="#5E9FF2" />
    <stop offset="50%" stop-color="#7E70F6" />
    <stop offset="100%" stop-color="#F46355" />
  </radialGradient>
</svg>
